<?xml version="1.0" encoding="utf-8"?>
<svg xmlns="http://www.w3.org/2000/svg" viewBox="334.2986 43.1561 171.452 187.9313" width="171.452px" height="187.931px">
  <g transform="matrix(1, 0, 0, 1, 23.252244949340827, 4.380415916442885)">
    <ellipse transform="matrix(0.7071 -0.7071 0.7071 0.7071 28.1781 317.028)" style="fill:#3B4EFF;" cx="396.776" cy="124.5" rx="60.618" ry="60.618"/>
    <g>
      <g>
        <path style="fill:#2E2E2E;" d="M405.876,123.948h-18.938c-5.574,0-10.314-4.801-11.159-11.302l-1.736-13.357 c-1.048-8.067,4.242-15.34,11.159-15.34h22.561c6.976,0,12.282,7.392,11.135,15.511l-1.887,13.357 C416.104,119.24,411.395,123.948,405.876,123.948z"/>
        <g>
          <g>
            <g>
              <g>
                <g>
                  <path style="fill:#F5F5FF;stroke:#2E2E2E;stroke-width:0.5006;stroke-linecap:round;stroke-linejoin:round;stroke-miterlimit:10;" d=" M411.76,111.922c-2.314,3.717-2.091,8.121,0.5,9.836c2.591,1.715,6.567,0.091,8.882-3.626 c2.315-3.717,2.091-8.121-0.5-9.836C418.052,106.581,414.075,108.205,411.76,111.922z"/>
                </g>
              </g>
            </g>
            <path style="fill:none;stroke:#2E2E2E;stroke-width:0.5006;stroke-linecap:round;stroke-linejoin:round;stroke-miterlimit:10;" d=" M418.693,110.08c1.122,0.438,1.975,1.504,2.156,2.694c0.182,1.191-0.314,2.462-1.255,3.215"/>
          </g>
          <g>
            <g>
              <g>
                <g>
                  <path style="fill:#F5F5FF;stroke:#2E2E2E;stroke-width:0.5006;stroke-linecap:round;stroke-linejoin:round;stroke-miterlimit:10;" d=" M380.514,111.922c2.314,3.717,2.091,8.121-0.5,9.836c-2.591,1.715-6.567,0.091-8.882-3.626 c-2.315-3.717-2.091-8.121,0.5-9.836C374.223,106.581,378.199,108.205,380.514,111.922z"/>
                </g>
              </g>
            </g>
            <path style="fill:none;stroke:#2E2E2E;stroke-width:0.5006;stroke-linecap:round;stroke-linejoin:round;stroke-miterlimit:10;" d=" M373.581,110.08c-1.122,0.438-1.975,1.504-2.156,2.694c-0.182,1.191,0.314,2.462,1.255,3.215"/>
          </g>
        </g>
        <g>
          <path style="fill:#F5F5FF;stroke:#2E2E2E;stroke-width:0.5589;stroke-linecap:round;stroke-linejoin:round;stroke-miterlimit:10;" d=" M409.013,156.799c0.224,6.718-5.153,12.273-11.871,12.273c-6.584,0-11.882-5.343-11.882-11.871c0-0.134,0-0.268,0.011-0.402 l1.319-17.705l0.335-4.482l0.659-8.797h19.103l1.051,13.905l0.749,10.116L409.013,156.799z"/>
          <path style="fill:#2E2E2E;" d="M408.487,149.836c-6.271,0.447-13.178-2.672-17.918-8.73c-1.598-2.034-2.817-4.236-3.644-6.494 l0.659-8.797h19.103l1.051,13.905L408.487,149.836z"/>
        </g>
        <g>
          <path style="fill:#F5F5FF;stroke:#2E2E2E;stroke-width:0.5006;stroke-linecap:round;stroke-linejoin:round;stroke-miterlimit:10;" d=" M417.645,117.93c0,5.146-2.103,10.073-5.827,13.627l-5.677,5.096c-1.722,1.882-4.155,2.954-6.708,2.954h-5.287 c-2.533,0-4.936-1.051-6.668-2.894l-5.797-5.146c-3.795-3.564-5.937-8.531-5.937-13.727l0.09-1.572l0.521-9.011l0.39-6.678 c0-11.104,8.931-20.105,19.945-20.105c5.517,0,10.503,2.253,14.108,5.887c3.615,3.635,5.847,8.661,5.847,14.218l0.44,7.6 l0.431,7.499L417.645,117.93z"/>
          <path style="fill:#2E2E2E;" d="M417.084,108.178h-0.621c-2.924-4.285-4.806-9.282-5.427-14.428 c-0.39-3.214-4.956-4.295-8.18-3.945c-1.452,2.193-4.005,3.625-6.638,3.705c-2.633,0.08-5.216-1.682-6.798-3.795 c-3.214-0.35-7.8,0.731-8.19,3.945c-0.581,4.816-2.263,9.502-4.876,13.597l0.39-6.678c0-11.104,8.931-20.105,19.945-20.105 c5.517,0,10.503,2.253,14.108,5.887c3.615,3.635,5.847,8.661,5.847,14.218L417.084,108.178z"/>
          <path style="fill:#2E2E2E;" d="M417.645,117.93l-0.13-2.253c-1.562,2.063-3.474,4.586-4.826,6.078 c-1.952,2.143-5.307,2.374-8.651,2.294c-0.871-0.02-2.022-0.42-3.184-0.951c-2.904-1.322-6.508-1.322-9.422,0 c-1.151,0.531-2.323,0.931-3.194,0.951c-3.344,0.08-6.698-0.152-8.641-2.294c-1.182-1.302-2.583-3.474-3.765-5.487l-0.09,1.572 c0,0.887,0.085,1.762,0.207,2.629c-0.039-0.065-0.079-0.131-0.117-0.196l-0.09,1.572c0,5.196,2.143,10.163,5.937,13.727 l5.797,5.146c1.732,1.842,4.135,2.894,6.668,2.894h5.287c2.553,0,4.986-1.071,6.708-2.954l5.677-5.096 c3.725-3.554,5.827-8.481,5.827-13.627l-0.114-1.979C417.603,119.286,417.645,118.61,417.645,117.93z"/>
          <g>
            <path style="fill:#F5F5FF;" d="M393.165,143.559c1.15,0.008,2.3-0.104,3.452-0.122c1.143-0.059,2.32-0.04,3.435-0.097 c2.236-0.182,4.374-1.187,5.955-2.804l0.01-0.011l0.002-0.002c0.923-0.782,1.861-1.547,2.82-2.288 c-0.84,0.874-1.702,1.724-2.578,2.557l0.012-0.012c-1.527,1.781-3.82,2.944-6.188,3.053c-1.184,0.043-2.311-0.01-3.47-0.047 C395.467,143.738,394.312,143.733,393.165,143.559z"/>
          </g>
          <path style="fill:#F5F5FF;" d="M406.01,128.079c-2.613,2.664-6.128,4.156-9.632,4.042c-3.184-0.102-6.298-1.537-8.701-3.905 h0.561c0.871-0.023,2.042-0.478,3.194-1.082c2.914-1.503,6.518-1.503,9.422,0c1.161,0.604,2.313,1.059,3.184,1.082 C404.699,128.238,405.36,128.193,406.01,128.079z"/>
          <path style="fill:#2E2E2E;" d="M396.378,130.88c1.107,0.461,1.682,0.923,2.096,1.384c0.393,0.461,0.579,0.923,0.579,1.384 c0.006,0.461-0.178,0.923-0.571,1.384c-0.413,0.461-0.989,0.923-2.103,1.384c-1.114-0.461-1.691-0.923-2.103-1.384 c-0.393-0.461-0.577-0.923-0.571-1.384c-0.001-0.461,0.186-0.923,0.578-1.384C394.697,131.803,395.271,131.341,396.378,130.88z "/>
        </g>
        <g>
          <g>
            <g>
              <path style="fill:#2E2E2E;" d="M401.069,104.347c0.931-0.559,1.95-0.943,3.022-1.23c1.074-0.276,2.215-0.434,3.392-0.392 c1.171,0.038,2.389,0.307,3.457,0.869c1.069,0.553,1.952,1.417,2.419,2.454c-1.08-0.356-2.052-0.543-2.981-0.572 c-0.929-0.03-1.817,0.089-2.718,0.251c-1.805,0.322-3.639,0.948-5.703,1.205c-0.765,0.095-1.463-0.448-1.558-1.213 C400.328,105.154,400.611,104.623,401.069,104.347z"/>
            </g>
            <g>
              <path style="fill:#2E2E2E;" d="M391.406,106.932c-2.064-0.257-3.898-0.883-5.703-1.205c-0.901-0.162-1.789-0.282-2.718-0.251 c-0.929,0.029-1.901,0.216-2.981,0.572c0.467-1.037,1.35-1.9,2.419-2.454c1.068-0.562,2.286-0.831,3.457-0.869 c1.176-0.042,2.317,0.116,3.391,0.392c1.073,0.287,2.091,0.671,3.022,1.23c0.663,0.395,0.879,1.252,0.484,1.915 C392.487,106.751,391.937,106.996,391.406,106.932z"/>
            </g>
          </g>
          <g>
            <g>
              <g>
                <g>
                  <g>
                    <g>
                      <g>
                        <path style="fill:#2E2E2E;" d="M401.484,112.902c0.288-0.446,0.593-0.875,0.898-1.311 c0.346-0.436,0.718-0.868,1.171-1.213c0.89-0.706,1.99-1.151,3.126-1.32c1.138-0.143,2.332-0.021,3.385,0.451 c0.537,0.207,1.019,0.536,1.474,0.868c0.418,0.322,0.839,0.639,1.113,1.162c0.063,0.12,0.017,0.268-0.103,0.331 c-0.048,0.025-0.1,0.033-0.149,0.025c-0.585-0.086-1.023-0.378-1.465-0.666c-0.421-0.25-0.846-0.473-1.301-0.628 c-0.9-0.326-1.863-0.445-2.817-0.367c-0.947,0.102-1.899,0.38-2.712,0.92c-0.427,0.24-0.795,0.571-1.154,0.914 c-0.375,0.369-0.743,0.751-1.131,1.112c-0.089,0.083-0.228,0.078-0.311-0.01 C401.438,113.096,401.43,112.984,401.484,112.902z"/>
                      </g>
                      <path style="fill:#2E2E2E;" d="M405.128,111.298c0.073-1.014,0.955-1.777,1.969-1.704 c1.014,0.073,1.777,0.954,1.704,1.969c-0.073,1.014-0.954,1.777-1.969,1.704 C405.818,113.194,405.055,112.312,405.128,111.298z"/>
                      <path style="fill:none;stroke:#2E2E2E;stroke-width:0.5006;stroke-linecap:round;stroke-linejoin:round;stroke-miterlimit:10;" d=" M401.864,113.061c0.892,0.472,1.926,0.701,2.997,0.663"/>
                    </g>
                  </g>
                </g>
              </g>
              <path style="fill:none;stroke:#2E2E2E;stroke-width:0.5006;stroke-linecap:round;stroke-linejoin:round;stroke-miterlimit:10;" d=" M401.603,110.839c1.02-1.411,2.631-2.38,4.356-2.617"/>
            </g>
            <g>
              <g>
                <g>
                  <g>
                    <g>
                      <g>
                        <path style="fill:#2E2E2E;" d="M392.512,113.181c-0.388-0.361-0.756-0.743-1.131-1.112 c-0.359-0.343-0.727-0.674-1.154-0.914c-0.813-0.54-1.766-0.819-2.712-0.92c-0.954-0.078-1.916,0.04-2.817,0.367 c-0.455,0.155-0.879,0.378-1.301,0.628c-0.442,0.288-0.88,0.58-1.465,0.666c-0.134,0.02-0.258-0.073-0.278-0.207 c-0.008-0.053,0.002-0.105,0.026-0.149c0.274-0.524,0.695-0.84,1.113-1.162c0.455-0.331,0.937-0.661,1.474-0.868 c1.054-0.472,2.247-0.594,3.385-0.451c1.136,0.169,2.236,0.614,3.126,1.32c0.453,0.344,0.825,0.777,1.171,1.213 c0.304,0.436,0.609,0.865,0.898,1.311c0.066,0.102,0.037,0.238-0.065,0.304 C392.695,113.261,392.583,113.248,392.512,113.181z"/>
                      </g>
                      <path style="fill:#2E2E2E;" d="M389.202,111.298c-0.073-1.014-0.955-1.777-1.969-1.704 c-1.014,0.073-1.777,0.954-1.704,1.969c0.073,1.014,0.954,1.777,1.969,1.704 C388.512,113.194,389.275,112.312,389.202,111.298z"/>
                      <path style="fill:none;stroke:#2E2E2E;stroke-width:0.5006;stroke-linecap:round;stroke-linejoin:round;stroke-miterlimit:10;" d=" M392.466,113.061c-0.892,0.472-1.926,0.701-2.997,0.663"/>
                    </g>
                  </g>
                </g>
              </g>
              <path style="fill:none;stroke:#2E2E2E;stroke-width:0.5006;stroke-linecap:round;stroke-linejoin:round;stroke-miterlimit:10;" d=" M392.727,110.839c-1.02-1.411-2.631-2.38-4.356-2.617"/>
            </g>
          </g>
          <g>
            <line style="fill:none;stroke:#2E2E2E;stroke-width:0.4622;stroke-linecap:round;stroke-linejoin:round;stroke-miterlimit:10;" x1="397.091" y1="119.758" x2="397.091" y2="110.807"/>
            <path style="fill:none;stroke:#2E2E2E;stroke-width:0.4622;stroke-linecap:round;stroke-linejoin:round;stroke-miterlimit:10;" d=" M393.982,121.308l1.537,0.647h0c0.984,0.414,2.089,0.414,3.073,0h0l1.537-0.647"/>
          </g>
          <g>
            <path style="fill:none;stroke:#2E2E2E;stroke-width:0.4178;stroke-linecap:round;stroke-linejoin:round;stroke-miterlimit:10;" d=" M398.321,128.404c1.874,0.02,3.837-0.345,5.444-1.31"/>
            <path style="fill:none;stroke:#2E2E2E;stroke-width:0.4178;stroke-linecap:round;stroke-linejoin:round;stroke-miterlimit:10;" d=" M394.754,128.485c-1.875,0.02-3.837-0.345-5.444-1.31"/>
            <path style="fill:none;stroke:#2E2E2E;stroke-width:0.4178;stroke-linecap:round;stroke-linejoin:round;stroke-miterlimit:10;" d=" M394.754,128.485c0.845,0.646,2.435,0.808,3.567-0.081"/>
          </g>
        </g>
        <g>
          <path style="fill:#2E2E2E;" d="M396.59,124.096c0.413-0.866,1.24-1.388,2.062-1.616c0.832-0.227,1.667-0.183,2.423-0.041 c1.556,0.348,2.672,0.973,3.498,1.319l0.978,0.423c0.256,0.116,0.522,0.215,0.965,0.237c0.879,0.068,2.172-0.376,3.815-0.528 c-0.159,1.901-0.736,3.543-2.174,4.841c-0.704,0.635-1.704,1.072-2.711,1.146c-1.01,0.089-1.942-0.167-2.707-0.511 c-1.542-0.709-2.535-1.771-3.289-2.623c-0.397-0.455-0.766-0.905-1.183-1.361C397.844,124.919,397.373,124.472,396.59,124.096z "/>
          <path style="fill:#2E2E2E;" d="M396.599,124.096c-0.783,0.376-1.254,0.823-1.678,1.287c-0.417,0.457-0.786,0.906-1.183,1.361 c-0.755,0.853-1.747,1.914-3.289,2.623c-0.764,0.344-1.697,0.6-2.707,0.511c-1.007-0.074-2.007-0.511-2.711-1.146 c-1.438-1.298-2.014-2.94-2.174-4.841c1.643,0.152,2.936,0.596,3.815,0.528c0.443-0.021,0.709-0.12,0.965-0.237l0.978-0.423 c0.826-0.346,1.942-0.971,3.498-1.319c0.757-0.142,1.591-0.186,2.424,0.041C395.359,122.708,396.186,123.23,396.599,124.096z"/>
        </g>
        <g>
          <path style="fill:#2E2E2E;" d="M398.272,89.618c3.712-0.428,7.69-1.675,9.704-4.823c1.695-2.651,1.592-6.159,0.407-9.074 c-1.764-4.335-5.913-7.657-10.555-8.245c-4.643-0.589-9.575,1.672-12.006,5.671c-2.431,3.999-2.117,9.535,0.887,13.123 c3.004,3.589,8.533,4.849,12.723,2.763"/>
          <g>
            <path style="fill:none;stroke:#2E2E2E;stroke-width:0.4047;stroke-linecap:round;stroke-linejoin:round;stroke-miterlimit:10;" d=" M409.091,75.111c2.045,1.983,2.06,5.476,0.625,7.947c-1.435,2.472-3.997,4.063-6.628,5.121 c-4.044,1.626-8.675,2.193-12.735,0.61c-4.06-1.583-7.319-5.647-7.139-10.051"/>
            <path style="fill:none;stroke:#2E2E2E;stroke-width:0.4047;stroke-linecap:round;stroke-linejoin:round;stroke-miterlimit:10;" d=" M399.649,87.171c3.818-0.485,7.106-3.571,8.052-7.302c0.946-3.731-0.382-7.891-3.156-10.558 c-2.775-2.667-6.851-3.832-10.659-3.274c-3.446,0.505-6.736,2.441-8.537,5.423c-1.801,2.982-1.928,6.997-0.012,9.906 c1.916,2.909,5.915,4.373,9.148,3.077"/>
          </g>
        </g>
      </g>
      <g>
        <g>
          <path style="fill:#2E2E2E;" d="M442.759,203.811c-9.117,4.114-17.441,5.382-18.591,2.832c-1.15-2.55,5.308-7.951,14.425-12.065 c9.117-4.114,17.441-5.382,18.591-2.832C458.335,194.295,451.876,199.697,442.759,203.811z"/>
          <path style="fill:#F5F5FF;stroke:#2E2E2E;stroke-width:0.535;stroke-linecap:round;stroke-linejoin:round;stroke-miterlimit:10;" d=" M438.754,226.205l-4.268-10.368l-3.417-8.307l-2.88-7.008l-6.329-15.38c-3.333-8.092-0.057-17.057,7.13-19.519 c1.255-0.43,2.54-0.624,3.814-0.614c0.118,0.001,0.235,0.002,0.353,0.013c5.573,0.201,10.957,4.339,13.115,10.657l5.123,14.975 l2.294,6.715l9.91,29.017"/>
          <path style="fill:#F5F5FF;stroke:#2E2E2E;stroke-width:0.5006;stroke-linecap:round;stroke-linejoin:round;stroke-miterlimit:10;" d=" M456.983,191.436c-1.68-2.129-9.673-0.792-18.383,3.135c-9.127,4.12-15.59,9.523-14.424,12.08 c0.021,0.053,0.053,0.096,0.096,0.15l-0.096,0.043L420.1,197.3c1.819-2.91,7.394-6.901,14.541-10.122 c7.233-3.264,13.985-4.815,17.334-4.194L456.983,191.436z"/>
          <path style="fill:#2E2E2E;" d="M451.975,182.983c-3.349-0.621-10.101,0.931-17.334,4.194 c-7.148,3.221-12.722,7.212-14.541,10.122l-6.003-14.07c-3.948-9.266,0.321-19.838,9.298-22.973 c1.701-0.599,3.435-0.888,5.157-0.888c6.152,0,12.048,3.649,15.076,9.555L451.975,182.983z"/>
        </g>
        <g>
          <path style="fill:#2E2E2E;" d="M350.792,203.811c9.117,4.114,17.441,5.382,18.591,2.832c1.15-2.55-5.308-7.951-14.425-12.065 c-9.117-4.114-17.441-5.382-18.591-2.832C335.217,194.295,341.675,199.697,350.792,203.811z"/>
          <path style="fill:#F5F5FF;stroke:#2E2E2E;stroke-width:0.535;stroke-linecap:round;stroke-linejoin:round;stroke-miterlimit:10;" d=" M354.798,226.205l4.268-10.368l3.417-8.307l2.881-7.008l6.329-15.38c3.333-8.092,0.057-17.057-7.13-19.519 c-1.255-0.43-2.54-0.624-3.814-0.614c-0.118,0.001-0.235,0.002-0.353,0.013c-5.573,0.201-10.958,4.339-13.115,10.657 l-5.123,14.975l-2.294,6.715l-9.91,29.017"/>
          <path style="fill:#F5F5FF;stroke:#2E2E2E;stroke-width:0.5006;stroke-linecap:round;stroke-linejoin:round;stroke-miterlimit:10;" d=" M336.568,191.436c1.68-2.129,9.673-0.792,18.383,3.135c9.127,4.12,15.59,9.523,14.424,12.08 c-0.021,0.053-0.053,0.096-0.096,0.15l0.096,0.043l4.077-9.544c-1.819-2.91-7.394-6.901-14.541-10.122 c-7.233-3.264-13.985-4.815-17.334-4.194L336.568,191.436z"/>
          <path style="fill:#2E2E2E;" d="M341.576,182.983c3.349-0.621,10.101,0.931,17.334,4.194 c7.148,3.221,12.722,7.212,14.541,10.122l6.003-14.07c3.948-9.266-0.321-19.838-9.298-22.973 c-1.701-0.599-3.435-0.888-5.157-0.888c-6.152,0-12.048,3.649-15.076,9.555L341.576,182.983z"/>
        </g>
      </g>
      <g>
        <polygon style="fill:#F5F5FF;stroke:#2E2E2E;stroke-width:0.535;stroke-linecap:round;stroke-linejoin:round;stroke-miterlimit:10;" points="&#10;&#9;&#9;&#9;&#9;&#9;434.986,226.707 358.685,226.707 359.081,215.525 359.359,207.457 359.712,197.549 360.846,165.556 361.017,160.795 &#10;&#9;&#9;&#9;&#9;&#9;363.478,159.906 377.784,154.738 380.545,153.743 381.914,153.24 385.488,151.318 386.569,151.318 407.22,151.318 &#10;&#9;&#9;&#9;&#9;&#9;407.648,151.318 411.66,153.165 413.019,153.658 415.78,154.653 430.503,159.971 432.772,160.795 432.932,165.567 &#10;&#9;&#9;&#9;&#9;&#9;433.542,183.586 434.002,197.357 434.334,207.318 434.334,207.372 434.633,216.37 &#9;&#9;&#9;&#9;"/>
        <path style="fill:#F5F5FF;stroke:#2E2E2E;stroke-width:0.5156;stroke-linecap:round;stroke-linejoin:round;stroke-miterlimit:10;" d=" M408.363,150.87l2.989,2.063l1.303,0.469c-0.974,7.771-7.607,13.77-15.648,13.77c-8.006,0-14.627-5.964-15.648-13.688 l1.327-0.481l3.14-2.407"/>
        <g>
          <line style="fill:none;stroke:#2E2E2E;stroke-width:0.4622;stroke-linecap:round;stroke-linejoin:round;stroke-miterlimit:10;" x1="371.339" y1="157.137" x2="371.339" y2="226.374"/>
          <line style="fill:none;stroke:#2E2E2E;stroke-width:0.4622;stroke-linecap:round;stroke-linejoin:round;stroke-miterlimit:10;" x1="384.617" y1="161.3" x2="384.617" y2="226.374"/>
          <line style="fill:none;stroke:#2E2E2E;stroke-width:0.4622;stroke-linecap:round;stroke-linejoin:round;stroke-miterlimit:10;" x1="396.95" y1="167.287" x2="396.946" y2="226.374"/>
          <line style="fill:none;stroke:#2E2E2E;stroke-width:0.4622;stroke-linecap:round;stroke-linejoin:round;stroke-miterlimit:10;" x1="410.224" y1="160.146" x2="410.224" y2="226.374"/>
          <line style="fill:none;stroke:#2E2E2E;stroke-width:0.4622;stroke-linecap:round;stroke-linejoin:round;stroke-miterlimit:10;" x1="422.554" y1="157.137" x2="422.554" y2="226.374"/>
        </g>
      </g>
    </g>
  </g>
</svg>