<?xml version="1.0" encoding="utf-8"?>
<svg xmlns="http://www.w3.org/2000/svg" viewBox="196.5739 28.0525 147.8707 175.5103" width="147.871px" height="175.51px">
  <ellipse transform="matrix(0.25200700759887695, -0.9677261114120485, 0.9677261114120485, 0.25200700759887695, 86.32998466491702, 312.6362752914429)" style="fill:#FFCE33;" cx="250.264" cy="125.15" rx="60.616" ry="60.616"/>
  <g transform="matrix(1, 0, 0, 1, 20.256615877151496, -23.16116046905516)">
    <g>
      <path style="fill:#2E2E2E;" d="M287.284,128.128c2.3-1.947,2.1-5.245,0.905-8.012c-1.194-2.766-4.307-4.57-7.301-4.231 c2.402-1.686,2.078-5.138,0.716-7.737c-1.362-2.6-4.77-3.911-7.524-2.896c2.561-2.042,2.646-5.417,0.984-8.24 c-0.695-1.18-1.776-2.088-3.017-2.66c-0.702-2.711-2.265-5.201-4.532-6.853c-1.821-1.327-4.018-2.05-6.26-2.203 c-2.609-1.764-5.935-2.792-8.715-1.431c-7.885-2.832-17.366-0.489-23.024,5.69c-0.949,1.036-1.822,2.227-2.053,3.613 c-0.231,1.386,0.361,2.992,1.655,3.539c-3.517-1.712-6.633-0.374-9.327,2.462c-2.695,2.835-3.289,7.454-1.4,10.879 c-3.02,0.1-5.455,3.649-6.168,6.586c-0.714,2.937,0.737,6.263,3.375,7.738c-3.724,0.381-5.103,5.501-3.98,9.073 c0.735,2.338,3.015,3.944,5.419,4.269c-2.065,1.025-3.905,2.992-4.748,4.926c-1.335,3.063-0.257,6.989,2.456,8.941 c2.712,1.951,6.778,1.726,9.257-0.514c-0.847,2.345,0.907,5.529,3.126,6.665c2.22,1.136,4.944,0.89,7.247-0.067 c2.303-0.957,4.273-2.552,6.207-4.125c-0.8,0.477,0.39,1.684,0.746,2.545c0.356,0.86,1.132,1.475,1.94,1.939 c4.49,2.58,10.871,1.057,13.712-3.272c-0.146,3.092,2.232,5.99,5.326,6.079s5.978-2.686,6.009-5.781 c1.992,2.998,5.654,3.768,8.495,1.558c2.84-2.21,3.25-6.915,0.834-9.583c2.619,2.337,7.198,3.755,9.361,0.992 c2.164-2.764,1.461-7.304-1.436-9.285c3.231,0.689,6.977-0.577,7.395-3.854C293.383,131.598,290.585,128.274,287.284,128.128z"/>
      <g>
        <path style="fill:#F5F5FF;stroke:#2E2E2E;stroke-width:0.5;stroke-linecap:round;stroke-linejoin:round;stroke-miterlimit:10;" d=" M261.513,165.662c0.217,6.616-4.971,12.103-11.443,12.103c-6.336,0-11.443-5.26-11.443-11.714c0-0.126,0-0.262,0.009-0.389 l1.274-17.472l0.163-2.251l0.795-10.855h18.403l0.823,11.262l0.181,2.459L261.513,165.662z"/>
        <path style="fill:#2E2E2E;" d="M260.966,156.985c-5.8,0.71-12.34-2.08-16.77-7.74c-1.8-2.29-3.05-4.81-3.77-7.36l0.52-7.05 h18.4l0.82,11.26l0.19,2.46L260.966,156.985z"/>
      </g>
      <g>
        <g>
          <g>
            <g>
              <g>
                <path style="fill:#F5F5FF;stroke:#2E2E2E;stroke-width:0.5;stroke-linecap:round;stroke-linejoin:round;stroke-miterlimit:10;" d=" M267.099,118.571c-2.312,3.713-2.088,8.111,0.499,9.824c2.587,1.713,6.559,0.091,8.871-3.622 c2.312-3.713,2.088-8.111-0.499-9.823C273.382,113.236,269.411,114.858,267.099,118.571z"/>
              </g>
            </g>
          </g>
          <path style="fill:none;stroke:#2E2E2E;stroke-width:0.5;stroke-linecap:round;stroke-linejoin:round;stroke-miterlimit:10;" d=" M274.023,116.731c1.121,0.438,1.972,1.502,2.154,2.691c0.182,1.189-0.314,2.459-1.253,3.211"/>
        </g>
        <g>
          <g>
            <g>
              <g>
                <path style="fill:#F5F5FF;stroke:#2E2E2E;stroke-width:0.5;stroke-linecap:round;stroke-linejoin:round;stroke-miterlimit:10;" d=" M232.892,118.571c2.312,3.713,2.088,8.111-0.499,9.824c-2.587,1.713-6.559,0.091-8.871-3.622 c-2.312-3.713-2.088-8.111,0.499-9.823C226.608,113.236,230.58,114.858,232.892,118.571z"/>
              </g>
            </g>
          </g>
          <path style="fill:none;stroke:#2E2E2E;stroke-width:0.5;stroke-linecap:round;stroke-linejoin:round;stroke-miterlimit:10;" d=" M225.968,116.731c-1.121,0.438-1.972,1.502-2.154,2.691s0.314,2.459,1.253,3.211"/>
        </g>
      </g>
      <path style="fill:#F5F5FF;stroke:#2E2E2E;stroke-width:0.5086;stroke-linecap:round;stroke-linejoin:round;stroke-miterlimit:10;" d=" M273.082,111.627c0,0.342,0,0.672-0.025,0.984c-0.038,0.972-0.126,1.944-0.265,2.893l-0.145,1.361l-0.07,0.737l-0.107,1.066 c-0.063,0.648-0.107,1.285-0.151,1.921c-0.025,0.407-0.051,0.807-0.076,1.208c-0.101,1.614-0.196,3.205-0.435,4.796 c0,0.024-0.013,0.053-0.013,0.077c-0.051,0.3-0.101,0.607-0.164,0.907c-0.063,0.33-0.126,0.654-0.221,0.972 c-0.114,0.477-0.253,0.96-0.417,1.449c-0.051,0.177-0.114,0.342-0.183,0.519c-0.126,0.354-0.278,0.707-0.429,1.072 c-0.423,0.931-0.922,1.844-1.496,2.752c-2.392,3.783-6.052,7.241-9.725,9.539c-0.013,0.024-0.038,0.035-0.051,0.035 c-0.448,0.289-0.896,0.554-1.338,0.795c-4.474,2.475-9.769,2.61-14.407,0.477c-0.959-0.442-1.887-0.943-2.783-1.538 c-0.013,0-0.025,0-0.038-0.023c-3.553-2.298-6.601-5.627-8.898-9.286c-0.164-0.253-0.316-0.507-0.473-0.772 c-0.076-0.135-0.151-0.277-0.227-0.412c-0.126-0.23-0.252-0.471-0.385-0.707c-0.366-0.63-0.688-1.29-0.978-1.933 c-0.076-0.177-0.164-0.354-0.234-0.542c-1.079-2.575-1.464-5.45-1.716-8.278c-0.044-0.442-0.082-0.89-0.12-1.332 c-0.044-0.495-0.089-0.99-0.126-1.479l-0.126-1.326c-0.032-0.147-0.057-0.289-0.082-0.43c-0.038-0.159-0.063-0.318-0.082-0.477 c-0.114-0.607-0.202-1.214-0.271-1.844c-0.113-1.019-0.177-2.092-0.177-3.182c0-0.088,0-0.189,0.013-0.277 c0-0.684,0.031-1.355,0.088-2.021c0.05-0.566,0.126-1.125,0.221-1.673c0.53-3.358,1.716-6.481,3.433-9.221 c0.429-0.689,0.889-1.349,1.382-1.986c4.903-6.342,13.283-10.032,21.85-8.652c6.853,1.104,12.416,5.326,15.761,10.755 c0.101,0.141,0.183,0.289,0.284,0.448c1.502,2.587,2.575,5.485,3.073,8.59c0,0.023,0.013,0.041,0.013,0.065 c0.088,0.548,0.158,1.108,0.208,1.673c0.063,0.666,0.095,1.337,0.095,2.021C273.082,111.439,273.082,111.539,273.082,111.627z"/>
      <g>
        <path style="fill:#2E2E2E;" d="M252.752,84.478c2.458,2.254,3.061,6.132,1.393,8.969c-1.668,2.836-5.452,4.371-8.753,3.55 c1.023,1.533,0.219,3.884-0.882,5.367c-1.102,1.483-3.183,2.237-5.04,1.826c1.572,4.896-1.635,10.635-6.288,13.194 c1.258,2.427,0.585,6.299-0.742,8.693c-1.327,2.394-3.905,4.119-6.718,4.495c1.86,2.093,2.519,5.436,1.536,8.014 c-0.982,2.578-3.484,4.573-6.319,5.041c-2.314,0.381-5.846-0.212-6.854-2.233s-0.362-4.668,1.478-6.059 c-1.065-2.17-1.723-4.201-1.857-6.594c-0.167-2.967,0.449-6.034,2.152-8.523c1.703-2.489,4.576-4.324,7.69-4.476 c-2.686-3.812-3.349-8.345-1.392-12.541c1.958-4.196,6.276-7.309,11.046-7.961c-0.048-2.625,0.967-5.155,3.099-6.819 c2.131-1.663,5.076-2.336,7.767-1.774c0.692-1.574,3.166-2.501,4.933-2.776c1.767-0.274,3.662,0.375,4.842,1.659"/>
        <path style="fill:#2E2E2E;" d="M254.814,85.655c-1.803,3.155-1.701,7.307,0.257,10.369c1.958,3.062,5.683,4.898,9.304,4.585 c-1.685,1.877-1.394,4.985,0.175,6.96c1.569,1.976,4.617,2.588,6.827,1.371c-1.13,0.949-2.285,2.382-2.391,3.854 c-0.107,1.472,0.737,3.054,2.144,3.501c1.407,0.447,3.174-0.612,3.186-2.088c0.032-4.153,2.577-8.057,1.178-11.968 c-1.398-3.911-4.544-7.16-8.407-8.684C265.71,88.209,260.334,85.581,254.814,85.655z"/>
      </g>
      <g>
        <g>
          <g>
            <circle style="fill:none;stroke:#2E2E2E;stroke-width:0.5;stroke-linecap:round;stroke-linejoin:round;stroke-miterlimit:10;" cx="239.004" cy="120.746" r="8.153"/>
            <circle style="fill:none;stroke:#2E2E2E;stroke-width:0.5;stroke-linecap:round;stroke-linejoin:round;stroke-miterlimit:10;" cx="261.449" cy="120.746" r="8.153"/>
          </g>
          <path style="fill:none;stroke:#2E2E2E;stroke-width:0.5;stroke-linecap:round;stroke-linejoin:round;stroke-miterlimit:10;" d=" M247.161,119.785c0.901-0.525,1.948-0.825,3.065-0.825c1.133,0,2.194,0.309,3.103,0.847"/>
          <line style="fill:none;stroke:#2E2E2E;stroke-width:0.5;stroke-linecap:round;stroke-linejoin:round;stroke-miterlimit:10;" x1="230.851" y1="120.746" x2="226.24" y2="114.606"/>
          <line style="fill:none;stroke:#2E2E2E;stroke-width:0.5;stroke-linecap:round;stroke-linejoin:round;stroke-miterlimit:10;" x1="269.451" y1="120.746" x2="274.063" y2="114.606"/>
        </g>
        <g>
          <g>
            <path style="fill:#2E2E2E;" d="M254.069,112.475c0.472-1.148,1.409-1.993,2.448-2.577c1.051-0.578,2.242-0.893,3.447-0.933 c1.205-0.041,2.411,0.2,3.495,0.704c1.074,0.511,2.062,1.284,2.625,2.391l-3.212-0.087c-0.973-0.018-1.898-0.014-2.814,0.013 c-0.916,0.029-1.837,0.081-2.804,0.163C256.28,112.227,255.288,112.338,254.069,112.475z"/>
          </g>
          <g>
            <path style="fill:#2E2E2E;" d="M246.234,112.475c-1.22-0.137-2.211-0.248-3.186-0.326c-0.966-0.082-1.887-0.135-2.803-0.163 c-0.917-0.026-1.841-0.031-2.814-0.013l-3.212,0.087c0.563-1.107,1.551-1.88,2.625-2.391c1.084-0.505,2.29-0.746,3.495-0.704 c1.205,0.04,2.396,0.355,3.447,0.933C244.825,110.482,245.762,111.327,246.234,112.475z"/>
          </g>
        </g>
        <g>
          <g>
            <g>
              <g>
                <g>
                  <g>
                    <g>
                      <g>
                        <path style="fill:#2E2E2E;" d="M254.63,120.573c0.217-0.482,0.459-0.949,0.688-1.424l0.019-0.029 c0.571-0.858,1.287-1.687,2.244-2.229c0.939-0.558,2.069-0.84,3.165-0.772c1.089,0.054,2.162,0.381,3.087,0.944 c0.462,0.278,0.883,0.611,1.272,0.971c0.387,0.353,0.735,0.783,0.878,1.305l0.002,0.009 c0.035,0.128-0.04,0.259-0.168,0.294c-0.055,0.015-0.111,0.009-0.159-0.012c-0.515-0.226-0.85-0.524-1.221-0.817 c-0.368-0.287-0.761-0.536-1.169-0.745c-0.807-0.424-1.695-0.669-2.593-0.74c-0.893-0.072-1.785,0.088-2.596,0.482 c-0.806,0.402-1.534,1.014-2.158,1.742l0.019-0.028c-0.313,0.424-0.612,0.857-0.937,1.275 c-0.074,0.096-0.212,0.113-0.308,0.039C254.614,120.773,254.589,120.663,254.63,120.573z"/>
                      </g>
                      <path style="fill:#2E2E2E;" d="M258.315,118.721c0.073-1.013,0.953-1.775,1.966-1.702 c1.013,0.073,1.775,0.953,1.702,1.966c-0.073,1.013-0.953,1.775-1.966,1.702 C259.004,120.614,258.242,119.734,258.315,118.721z"/>
                      <path style="fill:none;stroke:#2E2E2E;stroke-width:0.5;stroke-linecap:round;stroke-linejoin:round;stroke-miterlimit:10;" d=" M263.86,120.399c0.676-0.151,1.317-0.458,1.858-0.891"/>
                    </g>
                  </g>
                </g>
              </g>
            </g>
          </g>
          <g>
            <g>
              <g>
                <g>
                  <g>
                    <g>
                      <g>
                        <path style="fill:#2E2E2E;" d="M245.299,120.798c-0.324-0.418-0.624-0.85-0.937-1.275l0.019,0.028 c-0.624-0.727-1.352-1.339-2.158-1.742c-0.811-0.394-1.702-0.555-2.596-0.482c-0.898,0.072-1.786,0.316-2.593,0.74 c-0.407,0.209-0.8,0.458-1.169,0.745c-0.372,0.293-0.707,0.592-1.221,0.817c-0.121,0.053-0.262-0.002-0.315-0.123 c-0.023-0.052-0.026-0.108-0.012-0.159l0.003-0.009c0.143-0.522,0.49-0.952,0.878-1.305 c0.389-0.359,0.81-0.692,1.272-0.971c0.924-0.563,1.998-0.889,3.087-0.943c1.096-0.068,2.226,0.214,3.165,0.772 c0.957,0.542,1.673,1.371,2.244,2.229l0.019,0.029c0.229,0.475,0.471,0.942,0.688,1.424 c0.05,0.111,0.001,0.24-0.11,0.29C245.468,120.906,245.36,120.876,245.299,120.798z"/>
                      </g>
                      <path style="fill:#2E2E2E;" d="M241.988,118.721c-0.073-1.013-0.953-1.775-1.966-1.702 c-1.013,0.073-1.775,0.953-1.702,1.966c0.073,1.013,0.953,1.775,1.966,1.702 C241.299,120.614,242.061,119.734,241.988,118.721z"/>
                      <path style="fill:none;stroke:#2E2E2E;stroke-width:0.5;stroke-linecap:round;stroke-linejoin:round;stroke-miterlimit:10;" d=" M236.443,120.399c-0.676-0.151-1.317-0.458-1.858-0.891"/>
                    </g>
                  </g>
                </g>
              </g>
            </g>
          </g>
        </g>
        <path style="fill:none;stroke:#2E2E2E;stroke-width:0.4638;stroke-linecap:round;stroke-linejoin:round;stroke-miterlimit:10;" d=" M246.965,128.801c0.765-0.984,1.964-1.587,3.179-1.597c1.215-0.01,2.42,0.572,3.194,1.544"/>
        <g>
          <path style="fill:#2E2E2E;" d="M250.345,135.765c0.819-0.005,1.638-0.057,2.451-0.156c0.249-0.03,2.683-0.365,2.666-0.518 c0,0-1.253-0.963-1.688-1.333l-0.193-0.173c-0.466-0.417-0.948-0.849-1.555-1.066c-0.593-0.204-1.387-0.114-1.845,0.406 c-0.445-0.533-1.235-0.644-1.837-0.455c-0.609,0.2-1.102,0.619-1.58,1.023l-0.195,0.165c-0.446,0.357-1.726,1.289-1.726,1.289 c-0.018,0.199,2.098,0.565,2.341,0.6c0.892,0.129,1.792,0.201,2.694,0.215C250.032,135.765,250.188,135.766,250.345,135.765z"/>
          <path style="fill:#F5F5FF;stroke:#2E2E2E;stroke-width:0.5086;stroke-linecap:round;stroke-linejoin:round;stroke-miterlimit:10;" d=" M247.212,137.354c1.845,1.094,4.272,1.129,6.148,0.088"/>
        </g>
      </g>
    </g>
    <g>
      <g>
        <path style="fill:#2E2E2E;" d="M199.252,221.011c8.121,3.665,15.536,4.794,16.56,2.523c1.025-2.271-4.728-7.083-12.849-10.748 c-8.121-3.665-15.536-4.794-16.561-2.523C185.378,212.535,191.13,217.347,199.252,221.011z"/>
        <path style="fill:#F5F5FF;stroke:#2E2E2E;stroke-width:0.5;stroke-linecap:round;stroke-linejoin:round;stroke-miterlimit:10;" d=" M210.143,226.724l8.24-19.59l1.36-3.25l2.25-5.35l1.49-3.54l2.53-6.04l2.18-5.18c3.02-7.19,0.15-15.19-6.23-17.43 c-1.11-0.39-2.26-0.58-3.39-0.58c-1.01,0-2.01,0.15-2.99,0.43c-3.95,1.11-7.47,4.4-9.08,8.99l-4.76,13.6l-2.36,6.74 l-10.82,30.91c-0.03,0.1-0.07,0.19-0.1,0.29"/>
        <path style="fill:#2E2E2E;" d="M186.496,210.009c1.501-1.895,8.615-0.702,16.381,2.794c8.123,3.668,13.883,8.48,12.849,10.757 c-0.025,0.049-0.049,0.086-0.086,0.135l0.086,0.037l17.555-41.794c3.52-8.258-0.283-17.674-8.283-20.467 c-1.514-0.529-3.052-0.788-4.591-0.788c-5.477,0-10.732,3.249-13.428,8.517L186.496,210.009z"/>
        <g>
          <circle style="fill:#F5F5FF;" cx="200.097" cy="194.509" r="1.015"/>
          <path style="fill:#F5F5FF;" d="M201.997,206.444c0,0.795,0.644,1.439,1.439,1.439c0.795,0,1.439-0.644,1.439-1.439 c0-0.795-0.644-1.439-1.439-1.439C202.641,205.005,201.997,205.649,201.997,206.444z"/>
          <path style="fill:#F5F5FF;" d="M207.745,187.61c0,0.673-0.545,1.218-1.217,1.218s-1.217-0.545-1.217-1.218 c0-0.672,0.545-1.217,1.217-1.217S207.745,186.938,207.745,187.61z"/>
        </g>
      </g>
      <g>
        <path style="fill:#2E2E2E;" d="M301.277,221.011c-8.121,3.665-15.536,4.794-16.561,2.523 c-1.025-2.271,4.728-7.083,12.849-10.748c8.121-3.665,15.536-4.794,16.561-2.523 C315.151,212.535,309.398,217.347,301.277,221.011z"/>
        <path style="fill:#F5F5FF;stroke:#2E2E2E;stroke-width:0.5;stroke-linecap:round;stroke-linejoin:round;stroke-miterlimit:10;" d=" M290.386,226.724l-8.24-19.59l-1.36-3.25l-2.25-5.35l-1.49-3.54l-2.53-6.04l-2.18-5.18c-3.02-7.19-0.15-15.19,6.23-17.43 c1.11-0.39,2.26-0.58,3.39-0.58c1.01,0,2.01,0.15,2.99,0.43c3.95,1.11,7.47,4.4,9.08,8.99l4.76,13.6l2.36,6.74l10.82,30.91 c0.03,0.1,0.07,0.19,0.1,0.29"/>
        <path style="fill:#2E2E2E;" d="M314.032,210.009c-1.501-1.895-8.615-0.702-16.381,2.794 c-8.123,3.668-13.883,8.48-12.849,10.757c0.025,0.049,0.049,0.086,0.086,0.135l-0.086,0.037l-17.555-41.794 c-3.52-8.258,0.283-17.674,8.283-20.467c1.514-0.529,3.052-0.788,4.591-0.788c5.477,0,10.732,3.249,13.428,8.517 L314.032,210.009z"/>
        <g>
          <path style="fill:#F5F5FF;" d="M289.677,171.69c0,0.55-0.446,0.996-0.996,0.996c-0.55,0-0.996-0.446-0.996-0.996 c0-0.55,0.446-0.996,0.996-0.996C289.231,170.693,289.677,171.139,289.677,171.69z"/>
          <circle style="fill:#F5F5FF;" cx="300.432" cy="194.509" r="1.015"/>
          <path style="fill:#F5F5FF;" d="M292.997,187.185c0,0.672-0.545,1.217-1.218,1.217c-0.672,0-1.217-0.545-1.217-1.217 c0-0.672,0.545-1.217,1.217-1.217C292.452,185.968,292.997,186.513,292.997,187.185z"/>
          <path style="fill:#F5F5FF;" d="M298.531,206.444c0,0.795-0.644,1.439-1.439,1.439s-1.439-0.644-1.439-1.439 c0-0.795,0.644-1.439,1.439-1.439S298.531,205.649,298.531,206.444z"/>
          <path style="fill:#F5F5FF;" d="M286.799,209.543c0,0.55-0.446,0.996-0.996,0.996c-0.55,0-0.996-0.446-0.996-0.996 c0-0.55,0.446-0.996,0.996-0.996C286.353,208.547,286.799,208.993,286.799,209.543z"/>
        </g>
      </g>
    </g>
    <g>
      <g>
        <g>
          <path style="fill:#2E2E2E;" d="M286.976,179.004l-2.56,12.24c0.51,1.12,0.91,2.3,1.18,3.53c0.28,1.28,0.43,2.6,0.43,3.96 c0,1.62-0.21,3.2-0.62,4.7c-0.34,1.3-0.82,2.54-1.43,3.7c-1,1.92-2.32,3.65-3.91,5.1l-3.01,14.49h-54.17l-3.01-14.9 c-1.09-1.06-2.05-2.27-2.85-3.58c-0.95-1.56-1.68-3.27-2.13-5.09c-0.35-1.41-0.54-2.89-0.54-4.42c0-1.55,0.2-3.06,0.56-4.5 c0.23-0.91,0.52-1.79,0.87-2.64l-2.54-12.59c-1.09-4.64-0.88-9.18,0.76-12.6c1.35-2.84,3.69-4.9,7.09-5.63 c0.86-0.18,1.8-0.28,2.81-0.28h53.74c1,0,1.92,0.1,2.76,0.28c3.22,0.7,5.27,2.69,6.37,5.42 C288.186,169.644,288.086,174.274,286.976,179.004z"/>
        </g>
        <g>
          <g>
            <path style="fill:#FFFFFF;" d="M287.057,178.999c-0.376,2.05-0.723,4.107-1.128,6.151c-0.394,2.047-0.782,4.094-1.206,6.135 l-0.015-0.137c0.8,1.758,1.335,3.644,1.543,5.569c0.202,1.926,0.089,3.878-0.307,5.769c-0.392,1.894-1.135,3.703-2.107,5.362 c-0.975,1.662-2.251,3.128-3.684,4.387c1.373-1.331,2.517-2.873,3.435-4.53c0.918-1.66,1.548-3.462,1.93-5.308 c0.743-3.7,0.314-7.617-1.215-11.066c-0.02-0.044-0.024-0.093-0.015-0.137c0.427-2.04,0.889-4.072,1.347-6.106 C286.078,183.053,286.583,181.029,287.057,178.999z"/>
          </g>
          <g>
            <path style="fill:#FFFFFF;" d="M219.959,211.827c-1.33-1.25-2.509-2.684-3.414-4.289c-0.899-1.604-1.58-3.343-1.953-5.154 c-0.366-1.811-0.479-3.676-0.3-5.519c0.171-1.844,0.654-3.653,1.372-5.355l-0.013,0.132 c-0.838-4.201-1.598-8.418-2.318-12.642c0.974,4.174,1.907,8.355,2.762,12.553c0.009,0.045,0.003,0.092-0.013,0.132 c-1.366,3.337-1.759,7.069-1.066,10.614c0.349,1.77,0.931,3.499,1.776,5.105C217.637,209.007,218.691,210.51,219.959,211.827 z"/>
          </g>
        </g>
        <path style="fill:#F5F5FF;stroke:#2E2E2E;stroke-width:0.5;stroke-linecap:round;stroke-linejoin:round;stroke-miterlimit:10;" d=" M260.921,159.863l5.445,0.817c-2.42,6.28-8.63,11.13-15.41,11.42c-7.28,0.32-14.36-4.66-16.93-11.42l5.293-1.266"/>
      </g>
      <g>
        <path style="fill:#F5F5FF;" d="M225.914,186.078c0,0.673-0.545,1.218-1.217,1.218c-0.672,0-1.217-0.545-1.217-1.218 c0-0.672,0.545-1.217,1.217-1.217C225.369,184.861,225.914,185.406,225.914,186.078z"/>
        <path style="fill:#F5F5FF;" d="M237.868,215.963c0,1.284-1.041,2.324-2.324,2.324c-1.284,0-2.324-1.041-2.324-2.324 s1.041-2.324,2.324-2.324C236.827,213.638,237.868,214.679,237.868,215.963z"/>
        <path style="fill:#F5F5FF;" d="M273.508,196.372c0,0.856-0.694,1.55-1.55,1.55c-0.856,0-1.55-0.694-1.55-1.55 c0-0.856,0.694-1.549,1.55-1.549C272.814,194.822,273.508,195.516,273.508,196.372z"/>
        <circle style="fill:#F5F5FF;" cx="252.367" cy="191.834" r="3.21"/>
        <path style="fill:#F5F5FF;" d="M279.263,168.148c0,0.672-0.545,1.217-1.218,1.217c-0.672,0-1.217-0.545-1.217-1.217 c0-0.672,0.545-1.217,1.217-1.217C278.718,166.93,279.263,167.475,279.263,168.148z"/>
        <path style="fill:#F5F5FF;" d="M225.914,169.697c0,1.284-1.041,2.324-2.324,2.324c-1.284,0-2.324-1.041-2.324-2.324 c0-1.284,1.041-2.324,2.324-2.324C224.873,167.373,225.914,168.414,225.914,169.697z"/>
        <circle style="fill:#F5F5FF;" cx="264.542" cy="217.734" r="1.882"/>
        <circle style="fill:#F5F5FF;" cx="225.25" cy="205.448" r="1.771"/>
        <path style="fill:#F5F5FF;" d="M269.966,179.991c0,0.856-0.694,1.55-1.549,1.55s-1.55-0.694-1.55-1.55s0.694-1.549,1.55-1.549 S269.966,179.135,269.966,179.991z"/>
        <circle style="fill:#F5F5FF;" cx="243.402" cy="180.655" r="1.771"/>
        <path style="fill:#F5F5FF;" d="M253.585,220.722c0,0.489-0.396,0.885-0.885,0.885c-0.489,0-0.885-0.396-0.885-0.885 c0-0.489,0.396-0.885,0.885-0.885C253.188,219.837,253.585,220.233,253.585,220.722z"/>
      </g>
    </g>
  </g>
</svg>