<svg width="480" height="512" viewBox="0 0 480 512" fill="none" xmlns="http://www.w3.org/2000/svg">
<rect width="480" height="512" rx="40" fill="white"/>
<path d="M163.887 265.293H146.016V252.939H163.887C166.523 252.939 168.639 252.5 170.234 251.621C171.862 250.742 173.05 249.538 173.799 248.008C174.58 246.445 174.971 244.688 174.971 242.734C174.971 240.716 174.58 238.844 173.799 237.119C173.05 235.361 171.862 233.945 170.234 232.871C168.639 231.797 166.523 231.26 163.887 231.26H151.777V290H135.859V218.906H163.887C169.551 218.906 174.401 219.932 178.438 221.982C182.507 224.033 185.615 226.849 187.764 230.43C189.945 233.978 191.035 238.047 191.035 242.637C191.035 247.227 189.945 251.214 187.764 254.6C185.615 257.985 182.507 260.622 178.438 262.51C174.401 264.365 169.551 265.293 163.887 265.293ZM227.314 277.402V254.746C227.314 253.151 227.07 251.784 226.582 250.645C226.094 249.505 225.329 248.61 224.287 247.959C223.245 247.308 221.895 246.982 220.234 246.982C218.835 246.982 217.614 247.227 216.572 247.715C215.563 248.203 214.782 248.903 214.229 249.814C213.708 250.726 213.447 251.849 213.447 253.184H198.213C198.213 250.807 198.75 248.594 199.824 246.543C200.898 244.492 202.428 242.686 204.414 241.123C206.432 239.561 208.841 238.356 211.641 237.51C214.44 236.631 217.581 236.191 221.064 236.191C225.199 236.191 228.877 236.891 232.1 238.291C235.355 239.658 237.926 241.725 239.814 244.492C241.702 247.227 242.646 250.677 242.646 254.844V276.963C242.646 280.153 242.826 282.66 243.184 284.482C243.574 286.273 244.128 287.835 244.844 289.17V290H229.463C228.747 288.47 228.21 286.582 227.852 284.336C227.493 282.057 227.314 279.746 227.314 277.402ZM229.219 257.773L229.316 266.172H221.748C220.055 266.172 218.59 266.383 217.354 266.807C216.149 267.23 215.173 267.816 214.424 268.564C213.675 269.281 213.122 270.127 212.764 271.104C212.438 272.048 212.275 273.089 212.275 274.229C212.275 275.303 212.536 276.279 213.057 277.158C213.577 278.005 214.294 278.672 215.205 279.16C216.117 279.648 217.174 279.893 218.379 279.893C220.365 279.893 222.057 279.502 223.457 278.721C224.889 277.939 225.996 276.995 226.777 275.889C227.559 274.749 227.949 273.691 227.949 272.715L231.611 279.062C231.025 280.365 230.309 281.715 229.463 283.115C228.617 284.482 227.542 285.768 226.24 286.973C224.938 288.145 223.359 289.105 221.504 289.854C219.681 290.602 217.484 290.977 214.912 290.977C211.592 290.977 208.581 290.309 205.879 288.975C203.177 287.607 201.012 285.736 199.385 283.359C197.79 280.983 196.992 278.249 196.992 275.156C196.992 272.389 197.497 269.932 198.506 267.783C199.515 265.635 201.029 263.812 203.047 262.314C205.098 260.817 207.669 259.694 210.762 258.945C213.854 258.164 217.467 257.773 221.602 257.773H229.219ZM268.721 237.168V290H253.438V237.168H268.721ZM252.51 223.496C252.51 221.283 253.291 219.476 254.854 218.076C256.416 216.644 258.467 215.928 261.006 215.928C263.545 215.928 265.596 216.644 267.158 218.076C268.753 219.476 269.551 221.283 269.551 223.496C269.551 225.677 268.753 227.484 267.158 228.916C265.596 230.316 263.545 231.016 261.006 231.016C258.467 231.016 256.416 230.316 254.854 228.916C253.291 227.484 252.51 225.677 252.51 223.496ZM294.99 249.473V290H279.756V237.168H294.062L294.99 249.473ZM310.762 236.777L310.518 250.986C309.867 250.889 309.02 250.807 307.979 250.742C306.937 250.645 306.042 250.596 305.293 250.596C303.34 250.596 301.647 250.84 300.215 251.328C298.815 251.784 297.643 252.467 296.699 253.379C295.788 254.29 295.104 255.43 294.648 256.797C294.193 258.132 293.965 259.678 293.965 261.436L291.084 260.02C291.084 256.536 291.426 253.346 292.109 250.449C292.793 247.552 293.786 245.046 295.088 242.93C296.39 240.781 297.985 239.121 299.873 237.949C301.761 236.777 303.91 236.191 306.318 236.191C307.1 236.191 307.897 236.24 308.711 236.338C309.525 236.436 310.208 236.582 310.762 236.777ZM332.295 249.473V290H317.061V237.168H331.367L332.295 249.473ZM348.066 236.777L347.822 250.986C347.171 250.889 346.325 250.807 345.283 250.742C344.242 250.645 343.346 250.596 342.598 250.596C340.645 250.596 338.952 250.84 337.52 251.328C336.12 251.784 334.948 252.467 334.004 253.379C333.092 254.29 332.409 255.43 331.953 256.797C331.497 258.132 331.27 259.678 331.27 261.436L328.389 260.02C328.389 256.536 328.73 253.346 329.414 250.449C330.098 247.552 331.09 245.046 332.393 242.93C333.695 240.781 335.29 239.121 337.178 237.949C339.066 236.777 341.214 236.191 343.623 236.191C344.404 236.191 345.202 236.24 346.016 236.338C346.829 236.436 347.513 236.582 348.066 236.777Z" fill="#FF4D00"/>
</svg>
